<?xml version="1.0" standalone="no"?><!DOCTYPE svg PUBLIC "-//W3C//DTD SVG 1.1//EN" "http://www.w3.org/Graphics/SVG/1.1/DTD/svg11.dtd"><svg t="1727429943109" class="icon" viewBox="0 0 1024 1024" version="1.1" xmlns="http://www.w3.org/2000/svg" p-id="2647" xmlns:xlink="http://www.w3.org/1999/xlink" width="200" height="200"><path d="M986 445.8c0 110.6-83 201.8-190 214.2 2.2-3.8 4.4-7.6 6.4-11.6-53.2 88.2-146.2 150.4-254.4 161.6v94h158c21 0 38 17 38 38s-17 38-38 38H318c-21 0-38-17-38-38s17-38 38-38h158v-93.8c-106.6-11.2-198.2-71.4-251.8-157.4 1.4 2.6 3 5.2 4.4 7.8C121.4 648 38 556.8 38 446c0-1.8 0-3.6 0.2-5.4 0-0.8-0.2-1.8-0.2-2.6v-186c0-22 18-40 40-40h96V136c0-22 18-40 40-40h596c22 0 40 18 40 40v76h96.2c22 0 39.8 17.8 39.8 40v185.8c0 1 0 1.8-0.2 2.6 0.2 1.8 0.2 3.6 0.2 5.4zM182.2 551c-5.4-18-8.2-37.2-8.2-57V284H114v172h0.2c2.2 52.6 32 98 75.4 121.8-2.8-8.8-5.2-17.6-7.4-26.8zM776 168H246v328h1c11.8 139 125.4 248 264 248s252.2-109 264-248h1V168z m134.2 116H850v210c0 19.8-3 39-8.4 57-2 9-4.6 18-7.4 26.8 43.6-23.8 73.6-69.4 75.8-122h0.2V284z" fill="#313232" p-id="2648"></path><path d="M549.6 262h-51c-7.2 20-20.4 37.4-39.6 52.4-19.2 15-37 25.2-53.4 30.6V402c31.2-10.2 58.2-26.2 81.2-47.6v237h62.8V262z" fill="#313232" p-id="2649"></path></svg>