<?xml version="1.0" standalone="no"?><!DOCTYPE svg PUBLIC "-//W3C//DTD SVG 1.1//EN" "http://www.w3.org/Graphics/SVG/1.1/DTD/svg11.dtd"><svg t="1727430218616" class="icon" viewBox="0 0 1024 1024" version="1.1" xmlns="http://www.w3.org/2000/svg" p-id="5669" xmlns:xlink="http://www.w3.org/1999/xlink" width="200" height="200"><path d="M256 912a7.927 7.927 0 0 1-3.395-0.76C236.27 907.83 224 893.347 224 876c0-19.882 16.118-36 36-36h15.592c1.44-0.198 2.912-0.3 4.408-0.3h196V734.5C359 721.7 265.7 630.2 250.2 514 172 501.6 112 433.7 112 352V204c0-24.3 19.7-44 44-44h92v-40c0-4.4 3.6-8 8-8h512c4.4 0 8 3.6 8 8v40h92c24.3 0 44 19.7 44 44v148c0 81.7-60 149.6-138.2 162C758.3 630.2 665 721.7 548 734.5v105.2h196c1.496 0 2.967 0.102 4.408 0.3H764c19.882 0 36 16.118 36 36 0 17.348-12.27 31.83-28.605 35.24A7.931 7.931 0 0 1 768 912z m448-728H320v296c0 49.1 19.1 95.3 53.9 130.1 34.7 34.8 81 53.9 130.1 53.9h16c49.1 0 95.3-19.1 130.1-53.9 34.8-34.7 53.9-81 53.9-130.1V184z m-456 48h-64v120c0 41 26.9 75.8 64 87.6V232z m592 0h-64v207.6c37.1-11.8 64-46.6 64-87.6V232z" fill="#000000" p-id="5670"></path></svg>