<?xml version="1.0" standalone="no"?><!DOCTYPE svg PUBLIC "-//W3C//DTD SVG 1.1//EN" "http://www.w3.org/Graphics/SVG/1.1/DTD/svg11.dtd"><svg t="1727430031313" class="icon" viewBox="0 0 1024 1024" version="1.1" xmlns="http://www.w3.org/2000/svg" p-id="3874" xmlns:xlink="http://www.w3.org/1999/xlink" width="200" height="200"><path d="M986 445.8c0 110.6-83 201.8-190 214.2 2.2-3.8 4.4-7.6 6.4-11.6-53.2 88.2-146.2 150.4-254.4 161.6v94h158c21 0 38 17 38 38s-17 38-38 38H318c-21 0-38-17-38-38s17-38 38-38h158v-93.8c-106.6-11.2-198.2-71.4-251.8-157.4 1.4 2.6 3 5.2 4.4 7.8C121.4 648 38 556.8 38 446c0-1.8 0-3.6 0.2-5.4 0-0.8-0.2-1.8-0.2-2.6v-186c0-22 18-40 40-40h96V136c0-22 18-40 40-40h596c22 0 40 18 40 40v76h96.2c22 0 39.8 17.8 39.8 40v185.8c0 1 0 1.8-0.2 2.6 0.2 1.8 0.2 3.6 0.2 5.4zM182.2 551c-5.4-18-8.2-37.2-8.2-57V284H114v172h0.2c2.2 52.6 32 98 75.4 121.8-2.8-8.8-5.2-17.6-7.4-26.8zM776 168H246v328h1c11.8 139 125.4 248 264 248s252.2-109 264-248h1V168z m134.2 116H850v210c0 19.8-3 39-8.2 57-2 9-4.6 18-7.4 26.8 43.6-23.8 73.6-69.4 75.8-122h0.2V284z" fill="#313232" p-id="3875"></path><path d="M497.4 531.4c3.2-5.6 7.6-11.6 13-17.6 5.4-6 18-18.2 37.8-36.4 20-18.2 33.6-32.2 41.4-42 11.6-14.6 20-28.8 25.2-42.2 5.4-13.4 8-27.6 8-42.4 0-26-9.2-47.8-27.8-65.4-18.6-17.6-44.2-26.2-76.6-26.2-29.6 0-54.4 7.6-74.2 22.6-19.8 15.2-31.6 40-35.2 74.8l62.8 6.2c1.2-18.4 5.6-31.6 13.4-39.6 7.8-8 18.2-12 31.4-12 13.4 0 23.8 3.8 31.4 11.4 7.6 7.6 11.4 18.4 11.4 32.4 0 12.8-4.4 25.6-13 38.6-6.4 9.4-23.8 27.4-52.4 54-35.4 32.8-59 59.2-71 79-12 19.8-19.2 40.8-21.6 63h221.2v-58.6h-125.2z" fill="#313232" p-id="3876"></path></svg>