<?xml version="1.0" standalone="no"?><!DOCTYPE svg PUBLIC "-//W3C//DTD SVG 1.1//EN" "http://www.w3.org/Graphics/SVG/1.1/DTD/svg11.dtd"><svg t="1727430042594" class="icon" viewBox="0 0 1024 1024" version="1.1" xmlns="http://www.w3.org/2000/svg" p-id="5119" xmlns:xlink="http://www.w3.org/1999/xlink" width="200" height="200"><path d="M986 445.8c0 110.6-83 201.8-190 214.2 2.2-3.8 4.4-7.6 6.4-11.6-53.2 88.2-146.2 150.4-254.4 161.6v94h158c21 0 38 17 38 38s-17 38-38 38H318c-21 0-38-17-38-38s17-38 38-38h158v-93.8c-106.6-11.2-198.2-71.4-251.8-157.4 1.4 2.6 3 5.2 4.4 7.8C121.4 648 38 556.8 38 446c0-1.8 0-3.6 0.2-5.4 0-0.8-0.2-1.8-0.2-2.6v-186c0-22 18-40 40-40h96V136c0-22 18-40 40-40h596c22 0 40 18 40 40v76h96.2c22 0 39.8 17.8 39.8 40v185.8c0 1 0 1.8-0.2 2.6 0.2 1.8 0.2 3.6 0.2 5.4zM182.2 551c-5.4-18-8.2-37.2-8.2-57V284H114v172h0.2c2.2 52.6 32 98 75.4 121.8-2.8-8.8-5.2-17.6-7.4-26.8zM776 168H246v328h1c11.8 139 125.4 248 264 248s252.2-109 264-248h1V168z m134.2 116H850v210c0 19.8-3 39-8.2 57-2 9-4.6 18-7.4 26.8 43.6-23.8 73.6-69.4 75.8-122h0.2V284z" fill="#313232" p-id="5120"></path><path d="M441.4 569.8c19.6 17.2 44.4 25.8 74.2 25.8 31.4 0 57.8-10.2 78.8-30.6 21.2-20.4 31.6-45 31.6-73.8 0-20-5.6-37-17-51s-26.4-23.2-45.2-27.2c31.6-17.2 47.4-40.2 47.4-69.2 0-20.4-7.8-38.6-23.2-54.8-18.8-19.8-43.6-29.6-74.6-29.6-18.2 0-34.4 3.4-49 10.2-14.6 6.8-26 16.2-34.2 28-8.2 12-14.2 27.8-18.4 47.8l58.2 9.8c1.6-14.4 6.2-25.4 14-32.8 7.6-7.4 16.8-11.2 27.6-11.2 11 0 19.6 3.2 26.2 9.8 6.6 6.6 9.8 15.4 9.8 26.6 0 13-4.4 23.4-13.4 31.4-9 7.8-22 11.6-39 11.2l-7 51.4c11.2-3.2 20.8-4.8 29-4.8 12.2 0 22.6 4.6 31.2 14 8.6 9.2 12.8 21.8 12.8 37.8 0 16.8-4.4 30-13.4 40-9 9.8-19.8 14.8-33 14.8-12.2 0-22.4-4.2-31-12.4-8.6-8.2-13.8-20.2-15.8-35.8l-61 7.4c3.4 27.8 14.8 50.2 34.4 67.2z" fill="#313232" p-id="5121"></path></svg>